<svg width="86" height="31" viewBox="0 0 86 31" fill="none" xmlns="http://www.w3.org/2000/svg">
<path d="M32.112 26.536C32.4 26.536 32.64 26.632 32.832 26.824C33.024 27.016 33.12 27.256 33.12 27.544V29.992C33.12 30.28 33.024 30.52 32.832 30.712C32.64 30.904 32.4 31 32.112 31H2.496C2.048 31 1.664 30.84 1.344 30.52C1.024 30.2 0.864 29.816 0.864 29.368V1.624C0.864 1.176 1.024 0.791998 1.344 0.471998C1.664 0.151999 2.048 -0.00800133 2.496 -0.00800133H9.12C9.6 -0.00800133 10 0.151999 10.32 0.471998C10.64 0.791998 10.8 1.176 10.8 1.624V25.672C10.8 25.896 10.88 26.104 11.04 26.296C11.232 26.456 11.456 26.536 11.712 26.536H32.112ZM24.864 9.784C24.448 9.784 24.08 9.64 23.76 9.352C23.472 9.064 23.296 8.728 23.232 8.344V4.984C23.232 4.856 23.168 4.744 23.04 4.648C22.944 4.52 22.832 4.456 22.704 4.456C22.352 4.456 22.16 4.632 22.128 4.984V10.168C22.128 10.424 22.224 10.648 22.416 10.84C22.608 11.032 22.832 11.128 23.088 11.128H32.448C32.64 11.128 32.8 11.208 32.928 11.368C33.088 11.496 33.168 11.656 33.168 11.848V14.536C33.168 14.76 33.088 14.952 32.928 15.112C32.8 15.24 32.64 15.304 32.448 15.304H23.088C22.832 15.304 22.608 15.4 22.416 15.592C22.224 15.752 22.128 15.96 22.128 16.216V20.152C22.16 20.504 22.352 20.68 22.704 20.68C22.832 20.68 22.944 20.632 23.04 20.536C23.168 20.44 23.232 20.312 23.232 20.152V18.04C23.296 17.656 23.472 17.32 23.76 17.032C24.08 16.744 24.448 16.6 24.864 16.6H31.536C31.984 16.6 32.368 16.76 32.688 17.08C33.008 17.4 33.168 17.784 33.168 18.232V23.512C33.168 23.96 33.008 24.344 32.688 24.664C32.368 24.984 31.984 25.144 31.536 25.144H13.872C13.424 25.144 13.04 24.984 12.72 24.664C12.4 24.344 12.24 23.96 12.24 23.512V1.624C12.24 1.176 12.4 0.791998 12.72 0.471998C13.04 0.151999 13.424 -0.00800133 13.872 -0.00800133H31.536C31.984 -0.00800133 32.368 0.151999 32.688 0.471998C33.008 0.791998 33.168 1.176 33.168 1.624V8.152C33.168 8.6 33.008 8.984 32.688 9.304C32.368 9.624 31.984 9.784 31.536 9.784H24.864ZM62.1593 27.544C62.1593 28.504 61.8233 29.32 61.1512 29.992C60.4793 30.664 59.6633 31 58.7032 31H50.3513C49.3913 31 48.5592 30.664 47.8552 29.992C47.1832 29.32 46.8472 28.504 46.8472 27.544L46.8952 5.032C46.8632 4.68 46.6712 4.504 46.3192 4.504C45.9992 4.504 45.8232 4.68 45.7912 5.032V29.368C45.7912 29.816 45.6312 30.2 45.3112 30.52C44.9912 30.84 44.6072 31 44.1592 31H37.4872C37.0392 31 36.6552 30.84 36.3352 30.52C36.0152 30.2 35.8552 29.816 35.8552 29.368V3.448C35.8552 2.488 36.1912 1.672 36.8632 1C37.5352 0.327999 38.3512 -0.00800133 39.3112 -0.00800133H47.7112C48.6392 -0.00800133 49.4392 0.327999 50.1113 1C50.8152 1.672 51.1672 2.488 51.1672 3.448V25.96C51.1993 26.28 51.3753 26.44 51.6953 26.44C52.0152 26.44 52.1912 26.28 52.2233 25.96V1.576C52.2233 1.128 52.3833 0.759998 52.7032 0.471998C53.0232 0.151999 53.4072 -0.00800133 53.8552 -0.00800133H60.5272C60.9752 -0.00800133 61.3593 0.151999 61.6793 0.471998C61.9993 0.759998 62.1593 1.128 62.1593 1.576V27.544ZM85.8214 3.928V27.064C85.8214 28.152 85.4374 29.08 84.6694 29.848C83.9014 30.616 82.9734 31 81.8854 31H66.5254C66.0774 31 65.6934 30.84 65.3734 30.52C65.0534 30.2 64.8934 29.816 64.8934 29.368V1.576C64.8934 1.128 65.0534 0.759998 65.3734 0.471998C65.6934 0.151999 66.0774 -0.00800133 66.5254 -0.00800133H81.8854C82.9734 -0.00800133 83.9014 0.375998 84.6694 1.144C85.4374 1.912 85.8214 2.84 85.8214 3.928ZM75.9334 26.008V4.792C75.9334 4.632 75.8694 4.504 75.7414 4.408C75.6454 4.28 75.5174 4.216 75.3574 4.216C75.1974 4.216 75.0694 4.28 74.9734 4.408C74.8774 4.504 74.8294 4.632 74.8294 4.792V26.008C74.8294 26.168 74.8774 26.296 74.9734 26.392C75.0694 26.488 75.1974 26.536 75.3574 26.536C75.5174 26.536 75.6454 26.488 75.7414 26.392C75.8694 26.296 75.9334 26.168 75.9334 26.008Z" fill="url(#paint0_linear_197_155)"/>
<defs>
<linearGradient id="paint0_linear_197_155" x1="43.5" y1="-14" x2="43.5" y2="51" gradientUnits="userSpaceOnUse">
<stop stop-color="#8AD4EC"/>
<stop offset="1" stop-color="#0339A0"/>
</linearGradient>
</defs>
</svg>
