<svg width="43" height="63" viewBox="0 0 43 63" fill="none" xmlns="http://www.w3.org/2000/svg">
<path d="M20.6 4.248V52.92C20.6 53.624 20.952 53.976 21.656 53.976C21.976 53.976 22.232 53.88 22.424 53.688C22.616 53.496 22.744 53.24 22.808 52.92V31.128C22.872 30.296 23.192 29.624 23.768 29.112C24.408 28.536 25.144 28.248 25.976 28.248H39.32C40.216 28.248 40.984 28.568 41.624 29.208C42.264 29.848 42.584 30.616 42.584 31.512V59.736C42.584 60.632 42.264 61.4 41.624 62.04C40.984 62.68 40.216 63 39.32 63H3.992C3.096 63 2.328 62.68 1.688 62.04C1.048 61.4 0.728 60.632 0.728 59.736V4.248C0.728 3.352 1.048 2.584 1.688 1.944C2.328 1.304 3.096 0.983997 3.992 0.983997H17.24C18.2 0.983997 19 1.304 19.64 1.944C20.28 2.584 20.6 3.352 20.6 4.248Z" fill="url(#paint0_linear_499_1743)"/>
<defs>
<linearGradient id="paint0_linear_499_1743" x1="22" y1="-26" x2="22" y2="103" gradientUnits="userSpaceOnUse">
<stop stop-color="#8AD4EC"/>
<stop offset="1" stop-color="#0339A0"/>
</linearGradient>
</defs>
</svg>
