<svg width="66" height="63" viewBox="0 0 66 63" fill="none" xmlns="http://www.w3.org/2000/svg">
<path d="M63.224 54.072C63.8 54.072 64.28 54.264 64.664 54.648C65.048 55.032 65.24 55.512 65.24 56.088V60.984C65.24 61.56 65.048 62.04 64.664 62.424C64.28 62.808 63.8 63 63.224 63H3.992C3.096 63 2.328 62.68 1.688 62.04C1.048 61.4 0.728 60.632 0.728 59.736V4.248C0.728 3.352 1.048 2.584 1.688 1.944C2.328 1.304 3.096 0.983997 3.992 0.983997H17.24C18.2 0.983997 19 1.304 19.64 1.944C20.28 2.584 20.6 3.352 20.6 4.248V52.344C20.6 52.792 20.76 53.208 21.08 53.592C21.464 53.912 21.912 54.072 22.424 54.072H63.224ZM48.728 20.568C47.896 20.568 47.16 20.28 46.52 19.704C45.944 19.128 45.592 18.456 45.464 17.688V10.968C45.464 10.712 45.336 10.488 45.08 10.296C44.888 10.04 44.664 9.912 44.408 9.912C43.704 9.912 43.32 10.264 43.256 10.968V21.336C43.256 21.848 43.448 22.296 43.832 22.68C44.216 23.064 44.664 23.256 45.176 23.256H63.896C64.28 23.256 64.6 23.416 64.856 23.736C65.176 23.992 65.336 24.312 65.336 24.696V30.072C65.336 30.52 65.176 30.904 64.856 31.224C64.6 31.48 64.28 31.608 63.896 31.608H45.176C44.664 31.608 44.216 31.8 43.832 32.184C43.448 32.504 43.256 32.92 43.256 33.432V41.304C43.32 42.008 43.704 42.36 44.408 42.36C44.664 42.36 44.888 42.264 45.08 42.072C45.336 41.88 45.464 41.624 45.464 41.304V37.08C45.592 36.312 45.944 35.64 46.52 35.064C47.16 34.488 47.896 34.2 48.728 34.2H62.072C62.968 34.2 63.736 34.52 64.376 35.16C65.016 35.8 65.336 36.568 65.336 37.464V48.024C65.336 48.92 65.016 49.688 64.376 50.328C63.736 50.968 62.968 51.288 62.072 51.288H26.744C25.848 51.288 25.08 50.968 24.44 50.328C23.8 49.688 23.48 48.92 23.48 48.024V4.248C23.48 3.352 23.8 2.584 24.44 1.944C25.08 1.304 25.848 0.983997 26.744 0.983997H62.072C62.968 0.983997 63.736 1.304 64.376 1.944C65.016 2.584 65.336 3.352 65.336 4.248V17.304C65.336 18.2 65.016 18.968 64.376 19.608C63.736 20.248 62.968 20.568 62.072 20.568H48.728Z" fill="url(#paint0_linear_499_1743)"/>
<defs>
<linearGradient id="paint0_linear_499_1743" x1="33.5" y1="-26" x2="33.5" y2="103" gradientUnits="userSpaceOnUse">
<stop stop-color="#8AD4EC"/>
<stop offset="1" stop-color="#0339A0"/>
</linearGradient>
</defs>
</svg>
